{"title":"Maroon 5 - Maps [Explicit] 1080p [Sbyky]","uid":11182745,"size":70783275,"categoryP":"video","categoryS":"music_videos","magnet":"?xt=urn:btih:4a68c2ccd6a1fca6c84bc196743b70cb17fca9a0&amp;dn=Maroon+5+-+Maps+%5BExplicit%5D+1080p+%5BSbyky%5D&amp;tr=udp%3A%2F%2Ftracker.openbittorrent.com%3A80&amp;tr=udp%3A%2F%2Fopen.demonii.com%3A1337&amp;tr=udp%3A%2F%2Ftracker.coppersurfer.tk%3A6969&amp;tr=udp%3A%2F%2Fexodus.desync.com%3A6969","seeders":3,"leechers":0,"uploader":"Sbyky","files":1,"time":1412884516,"description":"General\nComplete name                            : Maroon 5 - Maps [Explicit] 1080p [Sbyky].MP4\nFormat                                   : MPEG-4\nFormat profile                           : Base Media\nCodec ID                                 : isom\nFile size                                : 67.5 MiB\nDuration                                 : 3mn 28s\nOverall bit rate mode                    : Variable\nOverall bit rate                         : 2 721 Kbps\nEncoded date                             : UTC 2014-07-03 23:07:29\nTagged date                              : UTC 2014-07-03 23:07:29\n\nVideo\nID                                       : 1\nFormat                                   : AVC\nFormat/Info                              : Advanced Video Codec\nFormat profile                           : &lt;a class=&quot;__cf_email__&quot; href=&quot;/cdn-cgi/l/email-protection&quot; data-cfemail=&quot;0f476668674f433b213f&quot;&gt;[email&amp;#160;protected]&lt;/a&gt;&lt;script cf-hash='f9e31' type=&quot;text/javascript&quot;&gt;\n/* &lt;![CDATA[ */!function(){try{var t=&quot;currentScript&quot;in document?document.currentScript:function(){for(var t=document.getElementsByTagName(&quot;script&quot;),e=t.length;e--;)if(t[e].getAttribute(&quot;cf-hash&quot;))return t[e]}();if(t&amp;&amp;t.previousSibling){var e,r,n,i,c=t.previousSibling,a=c.getAttribute(&quot;data-cfemail&quot;);if(a){for(e=&quot;&quot;,r=parseInt(a.substr(0,2),16),n=2;a.length-n;n+=2)i=parseInt(a.substr(n,2),16)^r,e+=String.fromCharCode(i);e=document.createTextNode(e),c.parentNode.replaceChild(e,c)}}}catch(u){}}();/* ]]&gt; */&lt;/script&gt;\nFormat settings, CABAC                   : Yes\nFormat settings, ReFrames                : 3 frames\nCodec ID                                 : avc1\nCodec ID/Info                            : Advanced Video Coding\nDuration                                 : 3mn 28s\nBit rate                                 : 2 592 Kbps\nWidth                                    : 1 920 pixels\nHeight                                   : 1 080 pixels\nDisplay aspect ratio                     : 16:9\nFrame rate mode                          : Variable\nFrame rate                               : 23.976 fps\nMinimum frame rate                       : 23.974 fps\nMaximum frame rate                       : 1 875.000 fps\nColor space                              : YUV\nChroma subsampling                       : 4:2:0\nBit depth                                : 8 bits\nScan type                                : Progressive\nBits/(Pixel*Frame)                       : 0.052\nStream size                              : 64.3 MiB (95%)\nEncoded date                             : UTC 2014-07-03 23:07:29\nTagged date                              : UTC 2014-07-03 23:07:29\n\nAudio\nID                                       : 2\nFormat                                   : AAC\nFormat/Info                              : Advanced Audio Codec\nFormat profile                           : LC\nCodec ID                                 : 40\nDuration                                 : 3mn 28s\nBit rate mode                            : Variable\nBit rate                                 : 126 Kbps\nChannel(s)                               : 2 channels\nChannel positions                        : Front: L R\nSampling rate                            : 44.1 KHz\nCompression mode                         : Lossy\nStream size                              : 3.12 MiB (5%)\nEncoded date                             : UTC 2014-07-03 23:06:08\nTagged date                              : UTC 2014-07-03 23:06:08\n\nShared By Sbyky\n","torrent":{"xt":"urn:btih:4a68c2ccd6a1fca6c84bc196743b70cb17fca9a0","amp;dn":"Maroon+5+-+Maps+%5BExplicit%5D+1080p+%5BSbyky%5D","amp;tr":["udp%3A%2F%2Ftracker.openbittorrent.com%3A80","udp%3A%2F%2Fopen.demonii.com%3A1337","udp%3A%2F%2Ftracker.coppersurfer.tk%3A6969","udp%3A%2F%2Fexodus.desync.com%3A6969"],"infoHash":"4a68c2ccd6a1fca6c84bc196743b70cb17fca9a0","infoHashBuffer":{"type":"Buffer","data":[74,104,194,204,214,161,252,166,200,75,193,150,116,59,112,203,23,252,169,160]},"announce":[],"urlList":[]}}